<?xml version="1.0" encoding="utf-8"?>
<!-- Svg Vector Icons : http://www.onlinewebfonts.com/icon -->
<!DOCTYPE svg PUBLIC "-//W3C//DTD SVG 1.1//EN" "http://www.w3.org/Graphics/SVG/1.1/DTD/svg11.dtd">
<svg version="1.1" xmlns="http://www.w3.org/2000/svg" xmlns:xlink="http://www.w3.org/1999/xlink" x="0px" y="0px" viewBox="0 0 1000 1000" enable-background="new 0 0 1000 1000" xml:space="preserve">
<metadata> Svg Vector Icons : http://www.onlinewebfonts.com/icon </metadata>
<g><g transform="translate(0.000000,511.000000) scale(0.100000,-0.100000)"><path d="M3046.9,1948.9V384.1l-1169.6-4.6l-1171.9-6.8l-11.4-1450.6l-11.4-1450.6l-290.1-376.9L100-3282.3l2723-6.9c1496.3-2.3,2725.3,0,2732.1,4.6c4.6,6.9-125.6,187.3-290.1,402.1l-299.2,392.9v683v683h696.7h696.7v-331.2V-1786h-388.3h-388.3v-114.2v-114.2h890.9h890.9v114.2v114.2H6976h-388.3v331.2v331.2h1656.2H9900v2318.6v2318.6H6473.4H3046.9V1948.9z M9689.8,1190.5L9683-906.6H7330.1H4977.2l-6.9,646.5l-4.6,644.2h-856.6h-856.6v1450.6v1450.6h3221h3221L9689.8,1190.5z M4737.3-1135v-1290.7H2829.8H922.4V-1135V155.7h1907.5h1907.5V-1135z M4972.6-2862l155.3-203.3H2841.3c-1822.9,0-2284.4,6.9-2270.7,29.7c9.1,13.7,80,107.4,153,205.6l137.1,175.9l1978.3-2.3h1978.3L4972.6-2862z"/><path d="M9100.5,2017.5v-285.6h114.2h114.2v285.6V2303h-114.2h-114.2V2017.5z"/><path d="M9100.5,464.1v-993.7h114.2h114.2v993.7v993.7h-114.2h-114.2V464.1z"/><path d="M1265-838v-582.5h114.2h114.2V-838v582.5h-114.2H1265V-838z"/><path d="M1265-1831.7v-159.9h114.2h114.2v159.9v159.9h-114.2H1265V-1831.7z"/><path d="M8712.1-2368.6v-925.2h593.9H9900v925.2v925.2h-593.9h-593.9V-2368.6z M9689.8-2167.5l-6.8-498l-370.1-6.8l-372.4-4.6v502.6v502.6h376.9h376.9L9689.8-2167.5z M9689.8-2978.5l6.8-86.8h-376.9h-379.2v91.4v91.4l372.4-4.6l370.1-6.9L9689.8-2978.5z"/></g></g>
</svg>