<?xml version="1.0" standalone="no"?>
<svg xmlns:xlink="http://www.w3.org/1999/xlink" id="wave" style="transform:rotate(0deg); transition: 0.3s" viewBox="0 0 1440 230" version="1.1" xmlns="http://www.w3.org/2000/svg"><defs><linearGradient id="sw-gradient-0" x1="0" x2="0" y1="1" y2="0"><stop stop-color="rgba(1, 3, 16, 1)" offset="0%"/><stop stop-color="rgba(1, 3, 16, 1)" offset="100%"/></linearGradient></defs><path style="transform:translate(0, 0px); opacity:1" fill="url(#sw-gradient-0)" d="M0,115L34.3,103.5C68.6,92,137,69,206,80.5C274.3,92,343,138,411,141.8C480,146,549,107,617,76.7C685.7,46,754,23,823,26.8C891.4,31,960,61,1029,84.3C1097.1,107,1166,123,1234,138C1302.9,153,1371,169,1440,176.3C1508.6,184,1577,184,1646,180.2C1714.3,176,1783,169,1851,168.7C1920,169,1989,176,2057,153.3C2125.7,130,2194,77,2263,46C2331.4,15,2400,8,2469,15.3C2537.1,23,2606,46,2674,46C2742.9,46,2811,23,2880,42.2C2948.6,61,3017,123,3086,134.2C3154.3,146,3223,107,3291,80.5C3360,54,3429,38,3497,53.7C3565.7,69,3634,115,3703,126.5C3771.4,138,3840,115,3909,107.3C3977.1,100,4046,107,4114,103.5C4182.9,100,4251,84,4320,80.5C4388.6,77,4457,84,4526,76.7C4594.3,69,4663,46,4731,38.3C4800,31,4869,38,4903,42.2L4937.1,46L4937.1,230L4902.9,230C4868.6,230,4800,230,4731,230C4662.9,230,4594,230,4526,230C4457.1,230,4389,230,4320,230C4251.4,230,4183,230,4114,230C4045.7,230,3977,230,3909,230C3840,230,3771,230,3703,230C3634.3,230,3566,230,3497,230C3428.6,230,3360,230,3291,230C3222.9,230,3154,230,3086,230C3017.1,230,2949,230,2880,230C2811.4,230,2743,230,2674,230C2605.7,230,2537,230,2469,230C2400,230,2331,230,2263,230C2194.3,230,2126,230,2057,230C1988.6,230,1920,230,1851,230C1782.9,230,1714,230,1646,230C1577.1,230,1509,230,1440,230C1371.4,230,1303,230,1234,230C1165.7,230,1097,230,1029,230C960,230,891,230,823,230C754.3,230,686,230,617,230C548.6,230,480,230,411,230C342.9,230,274,230,206,230C137.1,230,69,230,34,230L0,230Z"/></svg>